<?xml version="1.0" encoding="UTF-8" standalone="no"?>
<svg
   width="70.883224"
   height="71.323486"
   viewBox="0 0 70.883224 71.323486"
   fill="none"
   version="1.1"
   id="svg3"
   sodipodi:docname="list-icon.svg"
   inkscape:version="1.4.1-rc (d9e8dc1fe0, 2025-03-10)"
   xmlns:inkscape="http://www.inkscape.org/namespaces/inkscape"
   xmlns:sodipodi="http://sodipodi.sourceforge.net/DTD/sodipodi-0.dtd"
   xmlns="http://www.w3.org/2000/svg"
   xmlns:svg="http://www.w3.org/2000/svg">
  <sodipodi:namedview
     id="namedview3"
     pagecolor="#ffffff"
     bordercolor="#000000"
     borderopacity="0.25"
     inkscape:showpageshadow="2"
     inkscape:pageopacity="0.0"
     inkscape:pagecheckerboard="0"
     inkscape:deskcolor="#d1d1d1"
     inkscape:zoom="4.5426829"
     inkscape:cx="4.7328859"
     inkscape:cy="27.186577"
     inkscape:window-width="1920"
     inkscape:window-height="953"
     inkscape:window-x="0"
     inkscape:window-y="32"
     inkscape:window-maximized="1"
     inkscape:current-layer="svg3" />
  <g
     filter="url(#filter0_d_3235_433)"
     id="g1"
     transform="scale(0.43221477,0.43489933)" />
  <defs
     id="defs3">
    <filter
       id="filter0_d_3235_433"
       x="0"
       y="0"
       width="164"
       height="164"
       filterUnits="userSpaceOnUse"
       color-interpolation-filters="sRGB">
      <feFlood
         flood-opacity="0"
         result="BackgroundImageFix"
         id="feFlood1" />
      <feColorMatrix
         in="SourceAlpha"
         type="matrix"
         values="0 0 0 0 0 0 0 0 0 0 0 0 0 0 0 0 0 0 127 0"
         result="hardAlpha"
         id="feColorMatrix1" />
      <feOffset
         dy="24"
         id="feOffset1" />
      <feGaussianBlur
         stdDeviation="25"
         id="feGaussianBlur1" />
      <feComposite
         in2="hardAlpha"
         operator="out"
         id="feComposite1" />
      <feColorMatrix
         type="matrix"
         values="0 0 0 0 0.0509804 0 0 0 0 0.0470588 0 0 0 0 0.219608 0 0 0 0.15 0"
         id="feColorMatrix2" />
      <feBlend
         mode="normal"
         in2="BackgroundImageFix"
         result="effect1_dropShadow_3235_433"
         id="feBlend2" />
      <feBlend
         mode="normal"
         in="SourceGraphic"
         in2="effect1_dropShadow_3235_433"
         result="shape"
         id="feBlend3" />
    </filter>
  </defs>
  <rect
     x="2.802685"
     y="2.375839"
     width="64"
     height="64"
     rx="24"
     fill="#dc0155"
     id="rect1" />
  <path
     d="m 21.469385,33.042539 h 8 c 0.3536,0 0.6927,-0.1405 0.9428,-0.3906 0.25,-0.25 0.3905,-0.5891 0.3905,-0.9428 v -8 c 0,-0.3536 -0.1405,-0.6927 -0.3905,-0.9428 -0.2501,-0.25 -0.5892,-0.3905 -0.9428,-0.3905 h -8 c -0.3537,0 -0.6928,0.1405 -0.9428,0.3905 -0.2501,0.2501 -0.3906,0.5892 -0.3906,0.9428 v 8 c 0,0.3537 0.1405,0.6928 0.3906,0.9428 0.25,0.2501 0.5891,0.3906 0.9428,0.3906 z m 1.3333,-8 h 5.3333 v 5.3333 h -5.3333 z m 25.3333,1.3333 h -13.3333 c -0.3536,0 -0.6928,0.1405 -0.9428,0.3905 -0.2501,0.2501 -0.3905,0.5892 -0.3905,0.9428 0,0.3537 0.1404,0.6928 0.3905,0.9428 0.25,0.2501 0.5892,0.3906 0.9428,0.3906 h 13.3333 c 0.3537,0 0.6928,-0.1405 0.9428,-0.3906 0.2501,-0.25 0.3906,-0.5891 0.3906,-0.9428 0,-0.3536 -0.1405,-0.6927 -0.3906,-0.9428 -0.25,-0.25 -0.5891,-0.3905 -0.9428,-0.3905 z m 0,13.3333 h -13.3333 c -0.3536,0 -0.6928,0.1405 -0.9428,0.3906 -0.2501,0.25 -0.3905,0.5891 -0.3905,0.9428 0,0.3536 0.1404,0.6927 0.3905,0.9428 0.25,0.25 0.5892,0.3905 0.9428,0.3905 h 13.3333 c 0.3537,0 0.6928,-0.1405 0.9428,-0.3905 0.2501,-0.2501 0.3906,-0.5892 0.3906,-0.9428 0,-0.3537 -0.1405,-0.6928 -0.3906,-0.9428 -0.25,-0.2501 -0.5891,-0.3906 -0.9428,-0.3906 z m -24.0773,5.3334 h 0.016 c 0.3496,-0.0012 0.6848,-0.1395 0.9333,-0.3854 l 5.3947,-5.3333 c 0.1384,-0.1191 0.2509,-0.2654 0.3304,-0.4298 0.0796,-0.1644 0.1245,-0.3433 0.1321,-0.5258 0.0075,-0.1824 -0.0225,-0.3645 -0.0883,-0.5349 -0.0657,-0.1703 -0.1657,-0.3254 -0.2938,-0.4555 -0.1281,-0.1302 -0.2816,-0.2326 -0.4509,-0.301 -0.1694,-0.0683 -0.3509,-0.1012 -0.5335,-0.0965 -0.1825,0.0047 -0.3622,0.0468 -0.5278,0.1238 -0.1656,0.077 -0.3136,0.1872 -0.4349,0.3237 l -4.4386,4.3853 -1.6694,-1.7333 c -0.1217,-0.1259 -0.2671,-0.2266 -0.4278,-0.2963 -0.1607,-0.0697 -0.3335,-0.1071 -0.5087,-0.11 -0.3537,-0.0058 -0.6952,0.129 -0.9495,0.375 -0.2542,0.2459 -0.4004,0.5828 -0.4062,0.9365 -0.0059,0.3537 0.129,0.6952 0.3749,0.9495 l 2.6053,2.708 c 0.123,0.1255 0.2697,0.2254 0.4314,0.2941 0.1618,0.0686 0.3356,0.1046 0.5113,0.1059 z"
     fill="#f4f3f8"
     id="path1" />
</svg>
