<?xml version="1.0" encoding="UTF-8" standalone="no"?>
<!-- Created with Inkscape (http://www.inkscape.org/) -->

<svg
   width="16.933332mm"
   height="16.933332mm"
   viewBox="0 0 16.933332 16.933332"
   version="1.1"
   id="svg1"
   inkscape:version="1.4.1-rc (d9e8dc1fe0, 2025-03-10)"
   sodipodi:docname="user-icon.svg"
   xmlns:inkscape="http://www.inkscape.org/namespaces/inkscape"
   xmlns:sodipodi="http://sodipodi.sourceforge.net/DTD/sodipodi-0.dtd"
   xmlns="http://www.w3.org/2000/svg"
   xmlns:svg="http://www.w3.org/2000/svg">
  <sodipodi:namedview
     id="namedview1"
     pagecolor="#ffffff"
     bordercolor="#000000"
     borderopacity="0.25"
     inkscape:showpageshadow="2"
     inkscape:pageopacity="0.0"
     inkscape:pagecheckerboard="0"
     inkscape:deskcolor="#d1d1d1"
     inkscape:document-units="mm"
     inkscape:zoom="2.6547419"
     inkscape:cx="70.063309"
     inkscape:cy="85.884057"
     inkscape:window-width="1033"
     inkscape:window-height="706"
     inkscape:window-x="460"
     inkscape:window-y="218"
     inkscape:window-maximized="0"
     inkscape:current-layer="layer1" />
  <defs
     id="defs1" />
  <g
     inkscape:label="Layer 1"
     inkscape:groupmode="layer"
     id="layer1"
     transform="translate(-64.029167,-79.11042)">
    <rect
       x="64.029167"
       y="79.11042"
       width="16.933332"
       height="16.933332"
       rx="6.3499999"
       fill="#dc0155"
       id="rect1"
       sodipodi:insensitive="true"
       style="stroke-width:0.264583" />
    <path
       d="m 74.612473,85.857291 c 0,-1.166812 -0.949854,-2.116666 -2.116666,-2.116666 -1.166813,0 -2.116667,0.949854 -2.116667,2.116666 0,1.166813 0.949854,2.116667 2.116667,2.116667 1.166812,0 2.116666,-0.949854 2.116666,-2.116667 z m -3.439583,0 c 0,-0.730249 0.592667,-1.322916 1.322917,-1.322916 0.73025,0 1.322916,0.592667 1.322916,1.322916 0,0.73025 -0.592666,1.322917 -1.322916,1.322917 -0.73025,0 -1.322917,-0.592667 -1.322917,-1.322917 z m 1.957917,2.645834 h -1.27 c -1.386417,0 -2.513542,1.127125 -2.513542,2.513541 0,0.219605 0.177271,0.396875 0.396875,0.396875 h 5.503333 c 0.219604,0 0.396875,-0.17727 0.396875,-0.396875 0,-1.386416 -1.127125,-2.513541 -2.513541,-2.513541 z m -2.944813,2.116666 c 0.179917,-0.756708 0.862542,-1.322916 1.674813,-1.322916 h 1.27 c 0.81227,0 1.494895,0.566208 1.674812,1.322916 z"
       fill="#f4f3f8"
       id="path1"
       sodipodi:insensitive="true"
       style="stroke-width:0.264583" />
  </g>
</svg>
